<mxfile host="app.diagrams.net" agent="Mozilla/5.0 (Windows NT 10.0; Win64; x64) AppleWebKit/537.36 (KHTML, like Gecko) Chrome/131.0.0.0 Safari/537.36" version="25.0.3">
  <diagram name="第 1 页" id="y5B1yf6Q-Zg7JOPHiKTz">
    <mxGraphModel dx="597" dy="341" grid="1" gridSize="10" guides="1" tooltips="1" connect="1" arrows="1" fold="1" page="1" pageScale="1" pageWidth="1654" pageHeight="1169" math="0" shadow="0">
      <root>
        <mxCell id="0" />
        <mxCell id="1" parent="0" />
        <mxCell id="4VM6qZ6gIVkmnnb2UpD0-65" value="" style="rounded=0;whiteSpace=wrap;html=1;fillColor=none;" parent="1" vertex="1">
          <mxGeometry x="65" y="400" width="1110" height="660" as="geometry" />
        </mxCell>
        <mxCell id="4VM6qZ6gIVkmnnb2UpD0-57" value="" style="rounded=0;whiteSpace=wrap;html=1;fillColor=none;dashed=1;dashPattern=8 8;" parent="1" vertex="1">
          <mxGeometry x="100" y="445" width="875" height="605" as="geometry" />
        </mxCell>
        <mxCell id="znNk3qo2lREhvpHFH8Wh-2" value="PC" style="rounded=0;whiteSpace=wrap;html=1;" parent="1" vertex="1">
          <mxGeometry x="185" y="605" width="40" height="80" as="geometry" />
        </mxCell>
        <mxCell id="znNk3qo2lREhvpHFH8Wh-3" value="IF/ID" style="rounded=0;whiteSpace=wrap;html=1;fillColor=#dae8fc;strokeColor=#6c8ebf;" parent="1" vertex="1">
          <mxGeometry x="305" y="575" width="10" height="310" as="geometry" />
        </mxCell>
        <mxCell id="znNk3qo2lREhvpHFH8Wh-4" value="ID/EX" style="rounded=0;whiteSpace=wrap;html=1;fillColor=#dae8fc;strokeColor=#6c8ebf;" parent="1" vertex="1">
          <mxGeometry x="535" y="575" width="10" height="310" as="geometry" />
        </mxCell>
        <mxCell id="znNk3qo2lREhvpHFH8Wh-6" value="MEM/WD" style="rounded=0;whiteSpace=wrap;html=1;fillColor=#dae8fc;strokeColor=#6c8ebf;" parent="1" vertex="1">
          <mxGeometry x="835" y="575" width="10" height="310" as="geometry" />
        </mxCell>
        <mxCell id="vWQWYnxlX7WX7J1gLuqb-1" value="GRF" style="rounded=0;whiteSpace=wrap;html=1;" parent="1" vertex="1">
          <mxGeometry x="365" y="605" width="80" height="120" as="geometry" />
        </mxCell>
        <mxCell id="vWQWYnxlX7WX7J1gLuqb-6" value="" style="endArrow=none;html=1;rounded=0;endFill=0;" parent="1" edge="1">
          <mxGeometry relative="1" as="geometry">
            <mxPoint x="315" y="635" as="sourcePoint" />
            <mxPoint x="365" y="635" as="targetPoint" />
          </mxGeometry>
        </mxCell>
        <mxCell id="vWQWYnxlX7WX7J1gLuqb-7" value="Rs" style="edgeLabel;resizable=0;html=1;;align=center;verticalAlign=middle;" parent="vWQWYnxlX7WX7J1gLuqb-6" connectable="0" vertex="1">
          <mxGeometry relative="1" as="geometry" />
        </mxCell>
        <mxCell id="vWQWYnxlX7WX7J1gLuqb-10" value="" style="endArrow=none;html=1;rounded=0;endFill=0;" parent="1" edge="1">
          <mxGeometry relative="1" as="geometry">
            <mxPoint x="365" y="655" as="sourcePoint" />
            <mxPoint x="315" y="655" as="targetPoint" />
          </mxGeometry>
        </mxCell>
        <mxCell id="vWQWYnxlX7WX7J1gLuqb-11" value="Rt" style="edgeLabel;resizable=0;html=1;;align=center;verticalAlign=middle;" parent="vWQWYnxlX7WX7J1gLuqb-10" connectable="0" vertex="1">
          <mxGeometry relative="1" as="geometry" />
        </mxCell>
        <mxCell id="vWQWYnxlX7WX7J1gLuqb-17" value="EXT&lt;div&gt;(sign)&lt;/div&gt;" style="rounded=0;whiteSpace=wrap;html=1;" parent="1" vertex="1">
          <mxGeometry x="385" y="765" width="40" height="40" as="geometry" />
        </mxCell>
        <mxCell id="vWQWYnxlX7WX7J1gLuqb-18" value="" style="endArrow=none;html=1;rounded=0;endFill=0;" parent="1" edge="1">
          <mxGeometry relative="1" as="geometry">
            <mxPoint x="315" y="784.86" as="sourcePoint" />
            <mxPoint x="385" y="784.86" as="targetPoint" />
          </mxGeometry>
        </mxCell>
        <mxCell id="vWQWYnxlX7WX7J1gLuqb-19" value="Imm16" style="edgeLabel;resizable=0;html=1;;align=center;verticalAlign=middle;" parent="vWQWYnxlX7WX7J1gLuqb-18" connectable="0" vertex="1">
          <mxGeometry relative="1" as="geometry">
            <mxPoint x="15" as="offset" />
          </mxGeometry>
        </mxCell>
        <mxCell id="vWQWYnxlX7WX7J1gLuqb-21" value="" style="endArrow=none;html=1;rounded=0;endFill=0;" parent="1" edge="1">
          <mxGeometry relative="1" as="geometry">
            <mxPoint x="425" y="784.86" as="sourcePoint" />
            <mxPoint x="535" y="785" as="targetPoint" />
          </mxGeometry>
        </mxCell>
        <mxCell id="vWQWYnxlX7WX7J1gLuqb-22" value="Imm32" style="edgeLabel;resizable=0;html=1;;align=center;verticalAlign=middle;" parent="vWQWYnxlX7WX7J1gLuqb-21" connectable="0" vertex="1">
          <mxGeometry relative="1" as="geometry">
            <mxPoint x="10" as="offset" />
          </mxGeometry>
        </mxCell>
        <mxCell id="vWQWYnxlX7WX7J1gLuqb-23" value="NPC" style="rounded=0;whiteSpace=wrap;html=1;" parent="1" vertex="1">
          <mxGeometry x="385" y="855" width="50" height="30" as="geometry" />
        </mxCell>
        <mxCell id="vWQWYnxlX7WX7J1gLuqb-25" value="" style="endArrow=none;html=1;rounded=0;endFill=0;" parent="1" edge="1">
          <mxGeometry relative="1" as="geometry">
            <mxPoint x="315" y="845" as="sourcePoint" />
            <mxPoint x="535" y="845" as="targetPoint" />
          </mxGeometry>
        </mxCell>
        <mxCell id="vWQWYnxlX7WX7J1gLuqb-26" value="PC4" style="edgeLabel;resizable=0;html=1;;align=center;verticalAlign=middle;" parent="vWQWYnxlX7WX7J1gLuqb-25" connectable="0" vertex="1">
          <mxGeometry relative="1" as="geometry">
            <mxPoint x="60" as="offset" />
          </mxGeometry>
        </mxCell>
        <mxCell id="vWQWYnxlX7WX7J1gLuqb-30" value="" style="endArrow=none;html=1;rounded=0;" parent="1" edge="1">
          <mxGeometry width="50" height="50" relative="1" as="geometry">
            <mxPoint x="385" y="865" as="sourcePoint" />
            <mxPoint x="365" y="845" as="targetPoint" />
            <Array as="points">
              <mxPoint x="365" y="865" />
            </Array>
          </mxGeometry>
        </mxCell>
        <mxCell id="vWQWYnxlX7WX7J1gLuqb-31" value="" style="endArrow=none;html=1;rounded=0;" parent="1" edge="1">
          <mxGeometry width="50" height="50" relative="1" as="geometry">
            <mxPoint x="315" y="875" as="sourcePoint" />
            <mxPoint x="385" y="875" as="targetPoint" />
          </mxGeometry>
        </mxCell>
        <mxCell id="vWQWYnxlX7WX7J1gLuqb-32" value="Imm25" style="edgeLabel;html=1;align=center;verticalAlign=middle;resizable=0;points=[];" parent="vWQWYnxlX7WX7J1gLuqb-31" vertex="1" connectable="0">
          <mxGeometry x="-0.0889" y="-1" relative="1" as="geometry">
            <mxPoint x="18" y="-1" as="offset" />
          </mxGeometry>
        </mxCell>
        <mxCell id="vWQWYnxlX7WX7J1gLuqb-34" value="" style="endArrow=none;html=1;rounded=0;" parent="1" edge="1">
          <mxGeometry width="50" height="50" relative="1" as="geometry">
            <mxPoint x="435" y="865" as="sourcePoint" />
            <mxPoint x="155" y="645" as="targetPoint" />
            <Array as="points">
              <mxPoint x="445" y="865" />
              <mxPoint x="445" y="915" />
              <mxPoint x="135" y="915" />
              <mxPoint x="135" y="645" />
            </Array>
          </mxGeometry>
        </mxCell>
        <mxCell id="CX1a2zUJxjq3-y0xlzXL-5" value="NPC" style="edgeLabel;html=1;align=center;verticalAlign=middle;resizable=0;points=[];" parent="vWQWYnxlX7WX7J1gLuqb-34" vertex="1" connectable="0">
          <mxGeometry x="0.9599" relative="1" as="geometry">
            <mxPoint as="offset" />
          </mxGeometry>
        </mxCell>
        <mxCell id="vWQWYnxlX7WX7J1gLuqb-36" value="" style="shape=trapezoid;perimeter=trapezoidPerimeter;whiteSpace=wrap;html=1;fixedSize=1;rotation=90;size=20;rounded=0;container=0;" parent="1" vertex="1">
          <mxGeometry x="135" y="635" width="60" height="20" as="geometry" />
        </mxCell>
        <mxCell id="vWQWYnxlX7WX7J1gLuqb-42" value="" style="endArrow=none;html=1;rounded=0;" parent="1" edge="1">
          <mxGeometry width="50" height="50" relative="1" as="geometry">
            <mxPoint x="175" y="644.71" as="sourcePoint" />
            <mxPoint x="185" y="644.71" as="targetPoint" />
          </mxGeometry>
        </mxCell>
        <mxCell id="vWQWYnxlX7WX7J1gLuqb-43" value="" style="endArrow=none;html=1;rounded=0;exitX=0;exitY=0.5;exitDx=0;exitDy=0;" parent="1" source="vWQWYnxlX7WX7J1gLuqb-44" edge="1">
          <mxGeometry width="50" height="50" relative="1" as="geometry">
            <mxPoint x="235" y="845" as="sourcePoint" />
            <mxPoint x="225" y="645" as="targetPoint" />
            <Array as="points">
              <mxPoint x="235" y="845" />
              <mxPoint x="235" y="645" />
            </Array>
          </mxGeometry>
        </mxCell>
        <mxCell id="vWQWYnxlX7WX7J1gLuqb-47" value="PC" style="edgeLabel;html=1;align=center;verticalAlign=middle;resizable=0;points=[];" parent="vWQWYnxlX7WX7J1gLuqb-43" vertex="1" connectable="0">
          <mxGeometry x="-0.8926" y="-1" relative="1" as="geometry">
            <mxPoint as="offset" />
          </mxGeometry>
        </mxCell>
        <mxCell id="vWQWYnxlX7WX7J1gLuqb-46" value="" style="endArrow=none;html=1;rounded=0;" parent="1" source="vWQWYnxlX7WX7J1gLuqb-44" edge="1">
          <mxGeometry width="50" height="50" relative="1" as="geometry">
            <mxPoint x="275" y="844.71" as="sourcePoint" />
            <mxPoint x="305" y="844.71" as="targetPoint" />
          </mxGeometry>
        </mxCell>
        <mxCell id="vWQWYnxlX7WX7J1gLuqb-48" value="" style="endArrow=none;html=1;rounded=0;" parent="1" target="vWQWYnxlX7WX7J1gLuqb-44" edge="1">
          <mxGeometry width="50" height="50" relative="1" as="geometry">
            <mxPoint x="275" y="844.71" as="sourcePoint" />
            <mxPoint x="305" y="844.71" as="targetPoint" />
          </mxGeometry>
        </mxCell>
        <mxCell id="vWQWYnxlX7WX7J1gLuqb-44" value="+4" style="rounded=0;whiteSpace=wrap;html=1;" parent="1" vertex="1">
          <mxGeometry x="265" y="835" width="20" height="20" as="geometry" />
        </mxCell>
        <mxCell id="vWQWYnxlX7WX7J1gLuqb-49" value="" style="endArrow=none;html=1;rounded=0;fillColor=#dae8fc;strokeColor=#6c8ebf;startArrow=classic;startFill=1;" parent="1" edge="1">
          <mxGeometry width="50" height="50" relative="1" as="geometry">
            <mxPoint x="235" y="280" as="sourcePoint" />
            <mxPoint x="235" y="645" as="targetPoint" />
          </mxGeometry>
        </mxCell>
        <mxCell id="vWQWYnxlX7WX7J1gLuqb-50" value="" style="endArrow=none;html=1;rounded=0;fillColor=#dae8fc;strokeColor=#6c8ebf;startArrow=classic;startFill=1;" parent="1" edge="1">
          <mxGeometry width="50" height="50" relative="1" as="geometry">
            <mxPoint x="305" y="585" as="sourcePoint" />
            <mxPoint x="275" y="280" as="targetPoint" />
            <Array as="points">
              <mxPoint x="275" y="585" />
            </Array>
          </mxGeometry>
        </mxCell>
        <mxCell id="vWQWYnxlX7WX7J1gLuqb-51" value="" style="endArrow=none;html=1;rounded=0;" parent="1" edge="1">
          <mxGeometry width="50" height="50" relative="1" as="geometry">
            <mxPoint x="315" y="585" as="sourcePoint" />
            <mxPoint x="535" y="585" as="targetPoint" />
          </mxGeometry>
        </mxCell>
        <mxCell id="vWQWYnxlX7WX7J1gLuqb-52" value="Instr_D" style="edgeLabel;html=1;align=center;verticalAlign=middle;resizable=0;points=[];" parent="vWQWYnxlX7WX7J1gLuqb-51" vertex="1" connectable="0">
          <mxGeometry x="0.5805" y="-1" relative="1" as="geometry">
            <mxPoint x="-60" as="offset" />
          </mxGeometry>
        </mxCell>
        <mxCell id="CX1a2zUJxjq3-y0xlzXL-1" value="" style="endArrow=classic;html=1;rounded=0;exitX=0.495;exitY=0.893;exitDx=0;exitDy=0;exitPerimeter=0;" parent="1" source="CX1a2zUJxjq3-y0xlzXL-2" edge="1">
          <mxGeometry width="50" height="50" relative="1" as="geometry">
            <mxPoint x="164.66" y="595" as="sourcePoint" />
            <mxPoint x="164.66" y="625" as="targetPoint" />
          </mxGeometry>
        </mxCell>
        <mxCell id="CX1a2zUJxjq3-y0xlzXL-2" value="PCSel" style="text;html=1;align=center;verticalAlign=middle;resizable=0;points=[];autosize=1;strokeColor=none;fillColor=none;" parent="1" vertex="1">
          <mxGeometry x="135" y="575" width="60" height="30" as="geometry" />
        </mxCell>
        <mxCell id="CX1a2zUJxjq3-y0xlzXL-3" value="" style="endArrow=none;html=1;rounded=0;" parent="1" edge="1">
          <mxGeometry width="50" height="50" relative="1" as="geometry">
            <mxPoint x="155" y="624" as="sourcePoint" />
            <mxPoint x="295" y="845" as="targetPoint" />
            <Array as="points">
              <mxPoint x="125" y="624" />
              <mxPoint x="125" y="885" />
              <mxPoint x="295" y="885" />
            </Array>
          </mxGeometry>
        </mxCell>
        <mxCell id="CX1a2zUJxjq3-y0xlzXL-4" value="PC4" style="edgeLabel;html=1;align=center;verticalAlign=middle;resizable=0;points=[];" parent="CX1a2zUJxjq3-y0xlzXL-3" vertex="1" connectable="0">
          <mxGeometry x="-0.9306" y="-1" relative="1" as="geometry">
            <mxPoint as="offset" />
          </mxGeometry>
        </mxCell>
        <mxCell id="CX1a2zUJxjq3-y0xlzXL-6" value="(beq, jal)" style="text;html=1;align=center;verticalAlign=middle;resizable=0;points=[];autosize=1;strokeColor=none;fillColor=none;" parent="1" vertex="1">
          <mxGeometry x="375" y="885" width="70" height="30" as="geometry" />
        </mxCell>
        <mxCell id="CX1a2zUJxjq3-y0xlzXL-10" value="" style="endArrow=none;html=1;rounded=0;" parent="1" edge="1">
          <mxGeometry width="50" height="50" relative="1" as="geometry">
            <mxPoint x="445" y="625" as="sourcePoint" />
            <mxPoint x="485" y="625" as="targetPoint" />
          </mxGeometry>
        </mxCell>
        <mxCell id="CX1a2zUJxjq3-y0xlzXL-13" value="" style="endArrow=none;html=1;rounded=0;" parent="1" edge="1">
          <mxGeometry width="50" height="50" relative="1" as="geometry">
            <mxPoint x="445" y="684.31" as="sourcePoint" />
            <mxPoint x="485" y="684" as="targetPoint" />
          </mxGeometry>
        </mxCell>
        <mxCell id="CX1a2zUJxjq3-y0xlzXL-14" value="" style="endArrow=none;html=1;rounded=0;exitX=0.5;exitY=0;exitDx=0;exitDy=0;" parent="1" source="4VM6qZ6gIVkmnnb2UpD0-23" edge="1">
          <mxGeometry width="50" height="50" relative="1" as="geometry">
            <mxPoint x="935" y="785" as="sourcePoint" />
            <mxPoint x="365" y="705" as="targetPoint" />
            <Array as="points">
              <mxPoint x="925" y="785" />
              <mxPoint x="925" y="925" />
              <mxPoint x="345" y="925" />
              <mxPoint x="345" y="705" />
            </Array>
          </mxGeometry>
        </mxCell>
        <mxCell id="4VM6qZ6gIVkmnnb2UpD0-39" value="WD" style="edgeLabel;html=1;align=center;verticalAlign=middle;resizable=0;points=[];" parent="CX1a2zUJxjq3-y0xlzXL-14" vertex="1" connectable="0">
          <mxGeometry x="0.9825" y="3" relative="1" as="geometry">
            <mxPoint x="-2" y="3" as="offset" />
          </mxGeometry>
        </mxCell>
        <mxCell id="CX1a2zUJxjq3-y0xlzXL-15" value="" style="endArrow=none;html=1;rounded=0;" parent="1" edge="1">
          <mxGeometry width="50" height="50" relative="1" as="geometry">
            <mxPoint x="845" y="875" as="sourcePoint" />
            <mxPoint x="365" y="685" as="targetPoint" />
            <Array as="points">
              <mxPoint x="865" y="875" />
              <mxPoint x="865" y="945" />
              <mxPoint x="335" y="945" />
              <mxPoint x="335" y="685" />
            </Array>
          </mxGeometry>
        </mxCell>
        <mxCell id="4VM6qZ6gIVkmnnb2UpD0-38" value="A3" style="edgeLabel;html=1;align=center;verticalAlign=middle;resizable=0;points=[];" parent="CX1a2zUJxjq3-y0xlzXL-15" vertex="1" connectable="0">
          <mxGeometry x="0.9757" y="2" relative="1" as="geometry">
            <mxPoint x="1" y="2" as="offset" />
          </mxGeometry>
        </mxCell>
        <mxCell id="CX1a2zUJxjq3-y0xlzXL-16" value="" style="endArrow=none;html=1;rounded=0;fontColor=#007FFF;strokeColor=#001DBC;fillColor=#0050ef;" parent="1" edge="1">
          <mxGeometry width="50" height="50" relative="1" as="geometry">
            <mxPoint x="455" y="925" as="sourcePoint" />
            <mxPoint x="485" y="635" as="targetPoint" />
            <Array as="points">
              <mxPoint x="455" y="635" />
            </Array>
          </mxGeometry>
        </mxCell>
        <mxCell id="CX1a2zUJxjq3-y0xlzXL-17" value="" style="endArrow=none;html=1;rounded=0;endSize=1;sourcePerimeterSpacing=1;targetPerimeterSpacing=7;fillColor=#0050ef;strokeColor=#001DBC;" parent="1" edge="1">
          <mxGeometry width="50" height="50" relative="1" as="geometry">
            <mxPoint x="795" y="785" as="sourcePoint" />
            <mxPoint x="485" y="645" as="targetPoint" />
            <Array as="points">
              <mxPoint x="795" y="935" />
              <mxPoint x="465" y="935" />
              <mxPoint x="465" y="645" />
            </Array>
          </mxGeometry>
        </mxCell>
        <mxCell id="CX1a2zUJxjq3-y0xlzXL-18" value="" style="endArrow=none;html=1;rounded=0;" parent="1" edge="1">
          <mxGeometry width="50" height="50" relative="1" as="geometry">
            <mxPoint x="455" y="694.6600000000001" as="sourcePoint" />
            <mxPoint x="485" y="695" as="targetPoint" />
          </mxGeometry>
        </mxCell>
        <mxCell id="CX1a2zUJxjq3-y0xlzXL-19" value="" style="endArrow=none;html=1;rounded=0;" parent="1" edge="1">
          <mxGeometry width="50" height="50" relative="1" as="geometry">
            <mxPoint x="465" y="705" as="sourcePoint" />
            <mxPoint x="485" y="705" as="targetPoint" />
          </mxGeometry>
        </mxCell>
        <mxCell id="CX1a2zUJxjq3-y0xlzXL-20" value="" style="endArrow=none;html=1;rounded=0;" parent="1" edge="1">
          <mxGeometry width="50" height="50" relative="1" as="geometry">
            <mxPoint x="495" y="635" as="sourcePoint" />
            <mxPoint x="535" y="635" as="targetPoint" />
          </mxGeometry>
        </mxCell>
        <mxCell id="CX1a2zUJxjq3-y0xlzXL-22" value="" style="endArrow=none;html=1;rounded=0;" parent="1" edge="1">
          <mxGeometry width="50" height="50" relative="1" as="geometry">
            <mxPoint x="495" y="694.66" as="sourcePoint" />
            <mxPoint x="535" y="694.66" as="targetPoint" />
          </mxGeometry>
        </mxCell>
        <mxCell id="CX1a2zUJxjq3-y0xlzXL-7" value="" style="shape=trapezoid;perimeter=trapezoidPerimeter;whiteSpace=wrap;html=1;fixedSize=1;rotation=90;size=20;rounded=0;container=0;" parent="1" vertex="1">
          <mxGeometry x="465" y="625" width="50" height="20" as="geometry" />
        </mxCell>
        <mxCell id="CX1a2zUJxjq3-y0xlzXL-8" value="" style="shape=trapezoid;perimeter=trapezoidPerimeter;whiteSpace=wrap;html=1;fixedSize=1;rotation=90;size=20;rounded=0;container=0;" parent="1" vertex="1">
          <mxGeometry x="465" y="685" width="50" height="20" as="geometry" />
        </mxCell>
        <mxCell id="CX1a2zUJxjq3-y0xlzXL-23" value="=" style="rounded=0;whiteSpace=wrap;html=1;" parent="1" vertex="1">
          <mxGeometry x="495" y="745" width="30" height="30" as="geometry" />
        </mxCell>
        <mxCell id="CX1a2zUJxjq3-y0xlzXL-24" value="" style="endArrow=none;html=1;rounded=0;" parent="1" edge="1">
          <mxGeometry width="50" height="50" relative="1" as="geometry">
            <mxPoint x="505" y="745" as="sourcePoint" />
            <mxPoint x="505" y="635" as="targetPoint" />
          </mxGeometry>
        </mxCell>
        <mxCell id="CX1a2zUJxjq3-y0xlzXL-26" value="" style="endArrow=none;html=1;rounded=0;" parent="1" edge="1">
          <mxGeometry width="50" height="50" relative="1" as="geometry">
            <mxPoint x="514.31" y="745" as="sourcePoint" />
            <mxPoint x="514.31" y="695" as="targetPoint" />
          </mxGeometry>
        </mxCell>
        <mxCell id="CX1a2zUJxjq3-y0xlzXL-27" value="" style="endArrow=none;html=1;rounded=0;" parent="1" edge="1">
          <mxGeometry width="50" height="50" relative="1" as="geometry">
            <mxPoint x="435" y="875" as="sourcePoint" />
            <mxPoint x="515" y="775" as="targetPoint" />
            <Array as="points">
              <mxPoint x="515" y="875" />
            </Array>
          </mxGeometry>
        </mxCell>
        <mxCell id="CX1a2zUJxjq3-y0xlzXL-29" value="equ" style="edgeLabel;html=1;align=center;verticalAlign=middle;resizable=0;points=[];" parent="CX1a2zUJxjq3-y0xlzXL-27" vertex="1" connectable="0">
          <mxGeometry x="-0.3695" y="-3" relative="1" as="geometry">
            <mxPoint x="-7" as="offset" />
          </mxGeometry>
        </mxCell>
        <mxCell id="CX1a2zUJxjq3-y0xlzXL-30" value="" style="endArrow=none;html=1;rounded=0;" parent="1" edge="1">
          <mxGeometry width="50" height="50" relative="1" as="geometry">
            <mxPoint x="505" y="735" as="sourcePoint" />
            <mxPoint x="155" y="665" as="targetPoint" />
            <Array as="points">
              <mxPoint x="325" y="735" />
              <mxPoint x="325" y="905" />
              <mxPoint x="145" y="905" />
              <mxPoint x="145" y="665" />
            </Array>
          </mxGeometry>
        </mxCell>
        <mxCell id="CX1a2zUJxjq3-y0xlzXL-31" value="Jr" style="edgeLabel;html=1;align=center;verticalAlign=middle;resizable=0;points=[];" parent="CX1a2zUJxjq3-y0xlzXL-30" vertex="1" connectable="0">
          <mxGeometry x="0.9484" y="-1" relative="1" as="geometry">
            <mxPoint y="-10" as="offset" />
          </mxGeometry>
        </mxCell>
        <mxCell id="CX1a2zUJxjq3-y0xlzXL-33" value="" style="endArrow=none;html=1;rounded=0;entryX=0;entryY=0.5;entryDx=0;entryDy=0;" parent="1" target="CX1a2zUJxjq3-y0xlzXL-32" edge="1">
          <mxGeometry width="50" height="50" relative="1" as="geometry">
            <mxPoint x="325" y="585" as="sourcePoint" />
            <mxPoint x="325" y="515" as="targetPoint" />
            <Array as="points">
              <mxPoint x="325" y="495" />
            </Array>
          </mxGeometry>
        </mxCell>
        <mxCell id="CX1a2zUJxjq3-y0xlzXL-34" value="" style="endArrow=classic;html=1;rounded=0;" parent="1" edge="1">
          <mxGeometry width="50" height="50" relative="1" as="geometry">
            <mxPoint x="354.58" y="525" as="sourcePoint" />
            <mxPoint x="354.58" y="550" as="targetPoint" />
          </mxGeometry>
        </mxCell>
        <mxCell id="CX1a2zUJxjq3-y0xlzXL-35" value="PCSel" style="text;html=1;align=center;verticalAlign=middle;resizable=0;points=[];autosize=1;strokeColor=none;fillColor=none;" parent="1" vertex="1">
          <mxGeometry x="325" y="545" width="60" height="30" as="geometry" />
        </mxCell>
        <mxCell id="CX1a2zUJxjq3-y0xlzXL-32" value="Controller" style="rounded=1;whiteSpace=wrap;html=1;fillColor=#ffe6cc;strokeColor=#d79b00;" parent="1" vertex="1">
          <mxGeometry x="345" y="465" width="120" height="60" as="geometry" />
        </mxCell>
        <mxCell id="CX1a2zUJxjq3-y0xlzXL-38" value="" style="shape=trapezoid;perimeter=trapezoidPerimeter;whiteSpace=wrap;html=1;fixedSize=1;rotation=90;size=20;rounded=0;container=0;" parent="1" vertex="1">
          <mxGeometry x="560" y="635" width="50" height="20" as="geometry" />
        </mxCell>
        <mxCell id="CX1a2zUJxjq3-y0xlzXL-40" value="" style="endArrow=none;html=1;rounded=0;fillColor=#0050ef;strokeColor=#001DBC;" parent="1" edge="1">
          <mxGeometry width="50" height="50" relative="1" as="geometry">
            <mxPoint x="555" y="925" as="sourcePoint" />
            <mxPoint x="575" y="645" as="targetPoint" />
            <Array as="points">
              <mxPoint x="555" y="645" />
            </Array>
          </mxGeometry>
        </mxCell>
        <mxCell id="CX1a2zUJxjq3-y0xlzXL-41" value="" style="endArrow=none;html=1;rounded=0;fillColor=#0050ef;strokeColor=#001DBC;" parent="1" edge="1">
          <mxGeometry width="50" height="50" relative="1" as="geometry">
            <mxPoint x="565" y="935" as="sourcePoint" />
            <mxPoint x="575" y="655" as="targetPoint" />
            <Array as="points">
              <mxPoint x="565" y="935" />
              <mxPoint x="565" y="655" />
            </Array>
          </mxGeometry>
        </mxCell>
        <mxCell id="CX1a2zUJxjq3-y0xlzXL-42" value="" style="endArrow=none;html=1;rounded=0;" parent="1" edge="1">
          <mxGeometry width="50" height="50" relative="1" as="geometry">
            <mxPoint x="545" y="634.6600000000001" as="sourcePoint" />
            <mxPoint x="575" y="635" as="targetPoint" />
          </mxGeometry>
        </mxCell>
        <mxCell id="CX1a2zUJxjq3-y0xlzXL-44" value="" style="endArrow=none;html=1;rounded=0;" parent="1" edge="1">
          <mxGeometry width="50" height="50" relative="1" as="geometry">
            <mxPoint x="545" y="695" as="sourcePoint" />
            <mxPoint x="575" y="695.34" as="targetPoint" />
          </mxGeometry>
        </mxCell>
        <mxCell id="CX1a2zUJxjq3-y0xlzXL-46" value="" style="endArrow=none;html=1;rounded=0;" parent="1" edge="1">
          <mxGeometry width="50" height="50" relative="1" as="geometry">
            <mxPoint x="565" y="715" as="sourcePoint" />
            <mxPoint x="585" y="715" as="targetPoint" />
          </mxGeometry>
        </mxCell>
        <mxCell id="CX1a2zUJxjq3-y0xlzXL-45" value="" style="endArrow=none;html=1;rounded=0;" parent="1" edge="1">
          <mxGeometry width="50" height="50" relative="1" as="geometry">
            <mxPoint x="555" y="705" as="sourcePoint" />
            <mxPoint x="585" y="705.34" as="targetPoint" />
          </mxGeometry>
        </mxCell>
        <mxCell id="CX1a2zUJxjq3-y0xlzXL-39" value="" style="shape=trapezoid;perimeter=trapezoidPerimeter;whiteSpace=wrap;html=1;fixedSize=1;rotation=90;size=20;rounded=0;container=0;" parent="1" vertex="1">
          <mxGeometry x="560" y="695" width="50" height="20" as="geometry" />
        </mxCell>
        <mxCell id="CX1a2zUJxjq3-y0xlzXL-49" value="" style="endArrow=none;html=1;rounded=0;" parent="1" edge="1">
          <mxGeometry width="50" height="50" relative="1" as="geometry">
            <mxPoint x="545" y="785" as="sourcePoint" />
            <mxPoint x="625" y="725" as="targetPoint" />
            <Array as="points">
              <mxPoint x="575" y="785" />
              <mxPoint x="575" y="755" />
              <mxPoint x="595" y="755" />
              <mxPoint x="595" y="725" />
            </Array>
          </mxGeometry>
        </mxCell>
        <mxCell id="CX1a2zUJxjq3-y0xlzXL-52" value="" style="endArrow=none;html=1;rounded=0;" parent="1" edge="1">
          <mxGeometry width="50" height="50" relative="1" as="geometry">
            <mxPoint x="595" y="705" as="sourcePoint" />
            <mxPoint x="625" y="705" as="targetPoint" />
          </mxGeometry>
        </mxCell>
        <mxCell id="CX1a2zUJxjq3-y0xlzXL-55" value="" style="endArrow=none;html=1;rounded=0;" parent="1" edge="1">
          <mxGeometry width="50" height="50" relative="1" as="geometry">
            <mxPoint x="595" y="645" as="sourcePoint" />
            <mxPoint x="675" y="645" as="targetPoint" />
          </mxGeometry>
        </mxCell>
        <mxCell id="CX1a2zUJxjq3-y0xlzXL-56" value="" style="endArrow=none;html=1;rounded=0;" parent="1" edge="1">
          <mxGeometry width="50" height="50" relative="1" as="geometry">
            <mxPoint x="630" y="714.66" as="sourcePoint" />
            <mxPoint x="675" y="715" as="targetPoint" />
          </mxGeometry>
        </mxCell>
        <mxCell id="CX1a2zUJxjq3-y0xlzXL-48" value="" style="shape=trapezoid;perimeter=trapezoidPerimeter;whiteSpace=wrap;html=1;fixedSize=1;rotation=90;size=20;rounded=0;container=0;" parent="1" vertex="1">
          <mxGeometry x="605" y="705" width="50" height="20" as="geometry" />
        </mxCell>
        <mxCell id="CX1a2zUJxjq3-y0xlzXL-57" value="" style="endArrow=none;html=1;rounded=0;" parent="1" edge="1">
          <mxGeometry width="50" height="50" relative="1" as="geometry">
            <mxPoint x="645" y="765" as="sourcePoint" />
            <mxPoint x="645" y="645" as="targetPoint" />
          </mxGeometry>
        </mxCell>
        <mxCell id="CX1a2zUJxjq3-y0xlzXL-58" value="" style="endArrow=none;html=1;rounded=0;" parent="1" edge="1">
          <mxGeometry width="50" height="50" relative="1" as="geometry">
            <mxPoint x="655" y="765" as="sourcePoint" />
            <mxPoint x="655" y="715" as="targetPoint" />
          </mxGeometry>
        </mxCell>
        <mxCell id="CX1a2zUJxjq3-y0xlzXL-60" value="" style="endArrow=none;html=1;rounded=0;" parent="1" edge="1">
          <mxGeometry width="50" height="50" relative="1" as="geometry">
            <mxPoint x="686.25" y="680.9100000000001" as="sourcePoint" />
            <mxPoint x="706.25" y="680.9100000000001" as="targetPoint" />
          </mxGeometry>
        </mxCell>
        <mxCell id="CX1a2zUJxjq3-y0xlzXL-53" value="ALU" style="shape=trapezoid;perimeter=trapezoidPerimeter;whiteSpace=wrap;html=1;fixedSize=1;rotation=90;size=20;rounded=0;container=0;" parent="1" vertex="1">
          <mxGeometry x="630" y="667.5" width="95" height="27.5" as="geometry" />
        </mxCell>
        <mxCell id="CX1a2zUJxjq3-y0xlzXL-61" value="" style="endArrow=none;html=1;rounded=0;" parent="1" edge="1">
          <mxGeometry width="50" height="50" relative="1" as="geometry">
            <mxPoint x="705" y="755" as="sourcePoint" />
            <mxPoint x="605" y="705" as="targetPoint" />
            <Array as="points">
              <mxPoint x="605" y="755" />
            </Array>
          </mxGeometry>
        </mxCell>
        <mxCell id="CX1a2zUJxjq3-y0xlzXL-62" value="" style="endArrow=none;html=1;rounded=0;" parent="1" edge="1">
          <mxGeometry width="50" height="50" relative="1" as="geometry">
            <mxPoint x="665" y="789.66" as="sourcePoint" />
            <mxPoint x="705" y="790" as="targetPoint" />
          </mxGeometry>
        </mxCell>
        <mxCell id="CX1a2zUJxjq3-y0xlzXL-59" value="MDU" style="rounded=0;whiteSpace=wrap;html=1;" parent="1" vertex="1">
          <mxGeometry x="630" y="765" width="40" height="50" as="geometry" />
        </mxCell>
        <mxCell id="CX1a2zUJxjq3-y0xlzXL-64" value="" style="endArrow=none;html=1;rounded=0;" parent="1" edge="1">
          <mxGeometry width="50" height="50" relative="1" as="geometry">
            <mxPoint x="545" y="585" as="sourcePoint" />
            <mxPoint x="705" y="585" as="targetPoint" />
          </mxGeometry>
        </mxCell>
        <mxCell id="CX1a2zUJxjq3-y0xlzXL-65" value="Instr_E" style="edgeLabel;html=1;align=center;verticalAlign=middle;resizable=0;points=[];" parent="CX1a2zUJxjq3-y0xlzXL-64" vertex="1" connectable="0">
          <mxGeometry x="0.5805" y="-1" relative="1" as="geometry">
            <mxPoint x="-76" y="-1" as="offset" />
          </mxGeometry>
        </mxCell>
        <mxCell id="CX1a2zUJxjq3-y0xlzXL-66" value="" style="endArrow=none;html=1;rounded=0;endFill=0;" parent="1" edge="1">
          <mxGeometry relative="1" as="geometry">
            <mxPoint x="545" y="844.66" as="sourcePoint" />
            <mxPoint x="705" y="845" as="targetPoint" />
          </mxGeometry>
        </mxCell>
        <mxCell id="CX1a2zUJxjq3-y0xlzXL-67" value="PC4" style="edgeLabel;resizable=0;html=1;;align=center;verticalAlign=middle;" parent="CX1a2zUJxjq3-y0xlzXL-66" connectable="0" vertex="1">
          <mxGeometry relative="1" as="geometry">
            <mxPoint x="20" as="offset" />
          </mxGeometry>
        </mxCell>
        <mxCell id="CX1a2zUJxjq3-y0xlzXL-68" value="" style="endArrow=none;html=1;rounded=0;" parent="1" edge="1">
          <mxGeometry width="50" height="50" relative="1" as="geometry">
            <mxPoint x="620" y="874.66" as="sourcePoint" />
            <mxPoint x="705" y="874.66" as="targetPoint" />
          </mxGeometry>
        </mxCell>
        <mxCell id="CX1a2zUJxjq3-y0xlzXL-72" value="Rt" style="text;html=1;align=center;verticalAlign=middle;resizable=0;points=[];autosize=1;strokeColor=none;fillColor=none;" parent="1" vertex="1">
          <mxGeometry x="565" y="843" width="40" height="30" as="geometry" />
        </mxCell>
        <mxCell id="CX1a2zUJxjq3-y0xlzXL-73" value="Rd" style="text;html=1;align=center;verticalAlign=middle;resizable=0;points=[];autosize=1;strokeColor=none;fillColor=none;" parent="1" vertex="1">
          <mxGeometry x="565" y="860" width="40" height="30" as="geometry" />
        </mxCell>
        <mxCell id="CX1a2zUJxjq3-y0xlzXL-74" value="$31&lt;div&gt;(jr)&lt;/div&gt;" style="text;html=1;align=center;verticalAlign=middle;resizable=0;points=[];autosize=1;strokeColor=none;fillColor=none;" parent="1" vertex="1">
          <mxGeometry x="565" y="880" width="40" height="40" as="geometry" />
        </mxCell>
        <mxCell id="CX1a2zUJxjq3-y0xlzXL-63" value="" style="shape=trapezoid;perimeter=trapezoidPerimeter;whiteSpace=wrap;html=1;fixedSize=1;rotation=90;size=20;rounded=0;container=0;" parent="1" vertex="1">
          <mxGeometry x="595" y="865" width="50" height="20" as="geometry" />
        </mxCell>
        <mxCell id="CX1a2zUJxjq3-y0xlzXL-69" value="" style="endArrow=classic;html=1;rounded=0;" parent="1" edge="1">
          <mxGeometry width="50" height="50" relative="1" as="geometry">
            <mxPoint x="595" y="855" as="sourcePoint" />
            <mxPoint x="610" y="855" as="targetPoint" />
          </mxGeometry>
        </mxCell>
        <mxCell id="CX1a2zUJxjq3-y0xlzXL-70" value="" style="endArrow=classic;html=1;rounded=0;" parent="1" edge="1">
          <mxGeometry width="50" height="50" relative="1" as="geometry">
            <mxPoint x="595" y="874.66" as="sourcePoint" />
            <mxPoint x="610" y="874.66" as="targetPoint" />
          </mxGeometry>
        </mxCell>
        <mxCell id="CX1a2zUJxjq3-y0xlzXL-71" value="" style="endArrow=classic;html=1;rounded=0;" parent="1" edge="1">
          <mxGeometry width="50" height="50" relative="1" as="geometry">
            <mxPoint x="595" y="895" as="sourcePoint" />
            <mxPoint x="610" y="895" as="targetPoint" />
          </mxGeometry>
        </mxCell>
        <mxCell id="CX1a2zUJxjq3-y0xlzXL-75" value="" style="endArrow=classic;html=1;rounded=0;" parent="1" edge="1">
          <mxGeometry width="50" height="50" relative="1" as="geometry">
            <mxPoint x="615" y="775" as="sourcePoint" />
            <mxPoint x="630" y="775" as="targetPoint" />
          </mxGeometry>
        </mxCell>
        <mxCell id="CX1a2zUJxjq3-y0xlzXL-76" value="" style="endArrow=classic;html=1;rounded=0;" parent="1" edge="1">
          <mxGeometry width="50" height="50" relative="1" as="geometry">
            <mxPoint x="615" y="805" as="sourcePoint" />
            <mxPoint x="630" y="805" as="targetPoint" />
          </mxGeometry>
        </mxCell>
        <mxCell id="CX1a2zUJxjq3-y0xlzXL-77" value="Start" style="text;html=1;align=center;verticalAlign=middle;resizable=0;points=[];autosize=1;strokeColor=none;fillColor=none;fontSize=10;" parent="1" vertex="1">
          <mxGeometry x="580" y="760" width="40" height="30" as="geometry" />
        </mxCell>
        <mxCell id="CX1a2zUJxjq3-y0xlzXL-78" value="MDUCtrl" style="text;html=1;align=center;verticalAlign=middle;resizable=0;points=[];autosize=1;strokeColor=none;fillColor=none;strokeWidth=1;fontSize=9;" parent="1" vertex="1">
          <mxGeometry x="565" y="795" width="60" height="20" as="geometry" />
        </mxCell>
        <mxCell id="CX1a2zUJxjq3-y0xlzXL-79" value="" style="endArrow=classic;html=1;rounded=0;" parent="1" edge="1">
          <mxGeometry width="50" height="50" relative="1" as="geometry">
            <mxPoint x="615" y="789.31" as="sourcePoint" />
            <mxPoint x="630" y="789.31" as="targetPoint" />
          </mxGeometry>
        </mxCell>
        <mxCell id="CX1a2zUJxjq3-y0xlzXL-80" value="HILOSel" style="text;html=1;align=center;verticalAlign=middle;resizable=0;points=[];autosize=1;strokeColor=none;fillColor=none;fontSize=9;" parent="1" vertex="1">
          <mxGeometry x="565" y="780" width="60" height="20" as="geometry" />
        </mxCell>
        <mxCell id="CX1a2zUJxjq3-y0xlzXL-81" value="" style="endArrow=classic;html=1;rounded=0;" parent="1" edge="1">
          <mxGeometry width="50" height="50" relative="1" as="geometry">
            <mxPoint x="665" y="815" as="sourcePoint" />
            <mxPoint x="665" y="830" as="targetPoint" />
          </mxGeometry>
        </mxCell>
        <mxCell id="CX1a2zUJxjq3-y0xlzXL-82" value="Busy" style="text;html=1;align=center;verticalAlign=middle;resizable=0;points=[];autosize=1;strokeColor=none;fillColor=none;fontSize=9;" parent="1" vertex="1">
          <mxGeometry x="645" y="823" width="40" height="20" as="geometry" />
        </mxCell>
        <mxCell id="CX1a2zUJxjq3-y0xlzXL-83" value="" style="endArrow=classic;html=1;rounded=0;" parent="1" edge="1">
          <mxGeometry width="50" height="50" relative="1" as="geometry">
            <mxPoint x="677" y="515" as="sourcePoint" />
            <mxPoint x="677.16" y="645" as="targetPoint" />
          </mxGeometry>
        </mxCell>
        <mxCell id="CX1a2zUJxjq3-y0xlzXL-87" value="ALUCtrl" style="edgeLabel;html=1;align=center;verticalAlign=middle;resizable=0;points=[];" parent="CX1a2zUJxjq3-y0xlzXL-83" vertex="1" connectable="0">
          <mxGeometry x="-0.5214" y="2" relative="1" as="geometry">
            <mxPoint x="-2" y="-1" as="offset" />
          </mxGeometry>
        </mxCell>
        <mxCell id="CX1a2zUJxjq3-y0xlzXL-85" value="" style="endArrow=none;html=1;rounded=0;" parent="1" edge="1">
          <mxGeometry width="50" height="50" relative="1" as="geometry">
            <mxPoint x="560" y="585" as="sourcePoint" />
            <mxPoint x="575" y="515" as="targetPoint" />
            <Array as="points">
              <mxPoint x="560" y="515" />
            </Array>
          </mxGeometry>
        </mxCell>
        <mxCell id="CX1a2zUJxjq3-y0xlzXL-88" value="" style="endArrow=classicThin;html=1;rounded=0;strokeWidth=1;strokeColor=default;endFill=1;" parent="1" edge="1">
          <mxGeometry width="50" height="50" relative="1" as="geometry">
            <mxPoint x="630" y="505" as="sourcePoint" />
            <mxPoint x="630" y="695" as="targetPoint" />
          </mxGeometry>
        </mxCell>
        <mxCell id="CX1a2zUJxjq3-y0xlzXL-89" value="ALUSrc" style="edgeLabel;html=1;align=center;verticalAlign=middle;resizable=0;points=[];fontSize=8;" parent="CX1a2zUJxjq3-y0xlzXL-88" vertex="1" connectable="0">
          <mxGeometry x="0.6156" relative="1" as="geometry">
            <mxPoint y="9" as="offset" />
          </mxGeometry>
        </mxCell>
        <mxCell id="CX1a2zUJxjq3-y0xlzXL-90" value="" style="endArrow=classic;html=1;rounded=0;" parent="1" edge="1">
          <mxGeometry width="50" height="50" relative="1" as="geometry">
            <mxPoint x="580" y="525" as="sourcePoint" />
            <mxPoint x="580" y="545" as="targetPoint" />
          </mxGeometry>
        </mxCell>
        <mxCell id="CX1a2zUJxjq3-y0xlzXL-91" value="" style="endArrow=classic;html=1;rounded=0;" parent="1" edge="1">
          <mxGeometry width="50" height="50" relative="1" as="geometry">
            <mxPoint x="609.66" y="525" as="sourcePoint" />
            <mxPoint x="609.66" y="545" as="targetPoint" />
          </mxGeometry>
        </mxCell>
        <mxCell id="CX1a2zUJxjq3-y0xlzXL-92" value="" style="endArrow=classic;html=1;rounded=0;" parent="1" edge="1">
          <mxGeometry width="50" height="50" relative="1" as="geometry">
            <mxPoint x="650" y="515" as="sourcePoint" />
            <mxPoint x="650" y="605" as="targetPoint" />
          </mxGeometry>
        </mxCell>
        <mxCell id="CX1a2zUJxjq3-y0xlzXL-93" value="Start" style="text;html=1;align=center;verticalAlign=middle;resizable=0;points=[];autosize=1;strokeColor=none;fillColor=none;fontSize=10;" parent="1" vertex="1">
          <mxGeometry x="555" y="534.16" width="40" height="30" as="geometry" />
        </mxCell>
        <mxCell id="CX1a2zUJxjq3-y0xlzXL-94" value="HILOSel" style="text;html=1;align=center;verticalAlign=middle;resizable=0;points=[];autosize=1;strokeColor=none;fillColor=none;fontSize=9;" parent="1" vertex="1">
          <mxGeometry x="580" y="539.16" width="60" height="20" as="geometry" />
        </mxCell>
        <mxCell id="CX1a2zUJxjq3-y0xlzXL-95" value="MDUCtrl" style="text;html=1;align=center;verticalAlign=middle;resizable=0;points=[];autosize=1;strokeColor=none;fillColor=none;strokeWidth=1;fontSize=9;" parent="1" vertex="1">
          <mxGeometry x="625" y="605" width="60" height="20" as="geometry" />
        </mxCell>
        <mxCell id="CX1a2zUJxjq3-y0xlzXL-98" value="" style="endArrow=classic;html=1;rounded=0;" parent="1" edge="1">
          <mxGeometry width="50" height="50" relative="1" as="geometry">
            <mxPoint x="624" y="905" as="sourcePoint" />
            <mxPoint x="624.31" y="885" as="targetPoint" />
          </mxGeometry>
        </mxCell>
        <mxCell id="CX1a2zUJxjq3-y0xlzXL-99" value="RegDst" style="text;html=1;align=center;verticalAlign=middle;resizable=0;points=[];autosize=1;strokeColor=none;fillColor=none;fontSize=10;" parent="1" vertex="1">
          <mxGeometry x="595" y="900" width="60" height="30" as="geometry" />
        </mxCell>
        <mxCell id="znNk3qo2lREhvpHFH8Wh-5" value="EX/MEM" style="rounded=0;whiteSpace=wrap;html=1;fillColor=#dae8fc;strokeColor=#6c8ebf;" parent="1" vertex="1">
          <mxGeometry x="705" y="575" width="10" height="310" as="geometry" />
        </mxCell>
        <mxCell id="CX1a2zUJxjq3-y0xlzXL-100" value="" style="endArrow=none;html=1;rounded=0;endFill=0;" parent="1" source="CX1a2zUJxjq3-y0xlzXL-102" edge="1">
          <mxGeometry relative="1" as="geometry">
            <mxPoint x="715" y="844.66" as="sourcePoint" />
            <mxPoint x="835" y="845" as="targetPoint" />
          </mxGeometry>
        </mxCell>
        <mxCell id="CX1a2zUJxjq3-y0xlzXL-103" value="" style="endArrow=none;html=1;rounded=0;endFill=0;" parent="1" target="CX1a2zUJxjq3-y0xlzXL-102" edge="1">
          <mxGeometry relative="1" as="geometry">
            <mxPoint x="715" y="844.66" as="sourcePoint" />
            <mxPoint x="835" y="845" as="targetPoint" />
          </mxGeometry>
        </mxCell>
        <mxCell id="CX1a2zUJxjq3-y0xlzXL-104" value="PC4" style="edgeLabel;resizable=0;html=1;;align=center;verticalAlign=middle;" parent="CX1a2zUJxjq3-y0xlzXL-103" connectable="0" vertex="1">
          <mxGeometry relative="1" as="geometry">
            <mxPoint x="5" as="offset" />
          </mxGeometry>
        </mxCell>
        <mxCell id="CX1a2zUJxjq3-y0xlzXL-102" value="+4" style="rounded=0;whiteSpace=wrap;html=1;" parent="1" vertex="1">
          <mxGeometry x="765" y="835" width="20" height="20" as="geometry" />
        </mxCell>
        <mxCell id="CX1a2zUJxjq3-y0xlzXL-106" value="PC8" style="edgeLabel;resizable=0;html=1;;align=center;verticalAlign=middle;" parent="1" connectable="0" vertex="1">
          <mxGeometry x="814.9971875958064" y="845.0006873963762" as="geometry" />
        </mxCell>
        <mxCell id="CX1a2zUJxjq3-y0xlzXL-107" value="" style="endArrow=none;html=1;rounded=0;" parent="1" edge="1">
          <mxGeometry width="50" height="50" relative="1" as="geometry">
            <mxPoint x="715" y="874.66" as="sourcePoint" />
            <mxPoint x="835" y="875" as="targetPoint" />
          </mxGeometry>
        </mxCell>
        <mxCell id="CX1a2zUJxjq3-y0xlzXL-108" value="" style="endArrow=none;html=1;rounded=0;" parent="1" edge="1">
          <mxGeometry width="50" height="50" relative="1" as="geometry">
            <mxPoint x="715" y="680.9100000000001" as="sourcePoint" />
            <mxPoint x="765" y="775" as="targetPoint" />
            <Array as="points">
              <mxPoint x="755" y="681" />
              <mxPoint x="755" y="775" />
            </Array>
          </mxGeometry>
        </mxCell>
        <mxCell id="CX1a2zUJxjq3-y0xlzXL-109" value="" style="endArrow=none;html=1;rounded=0;" parent="1" edge="1">
          <mxGeometry width="50" height="50" relative="1" as="geometry">
            <mxPoint x="715" y="790" as="sourcePoint" />
            <mxPoint x="765" y="790" as="targetPoint" />
          </mxGeometry>
        </mxCell>
        <mxCell id="CX1a2zUJxjq3-y0xlzXL-112" value="" style="endArrow=none;html=1;rounded=0;" parent="1" edge="1">
          <mxGeometry width="50" height="50" relative="1" as="geometry">
            <mxPoint x="715" y="755" as="sourcePoint" />
            <mxPoint x="725" y="755" as="targetPoint" />
          </mxGeometry>
        </mxCell>
        <mxCell id="CX1a2zUJxjq3-y0xlzXL-111" value="EXT&lt;div&gt;(byte)&lt;/div&gt;" style="rounded=0;whiteSpace=wrap;html=1;fontSize=7;" parent="1" vertex="1">
          <mxGeometry x="725" y="745" width="20" height="23" as="geometry" />
        </mxCell>
        <mxCell id="CX1a2zUJxjq3-y0xlzXL-114" value="" style="endArrow=none;html=1;rounded=0;" parent="1" edge="1">
          <mxGeometry width="50" height="50" relative="1" as="geometry">
            <mxPoint x="815" y="680.91" as="sourcePoint" />
            <mxPoint x="835" y="680.91" as="targetPoint" />
          </mxGeometry>
        </mxCell>
        <mxCell id="CX1a2zUJxjq3-y0xlzXL-115" value="EXT&lt;div&gt;(byte)&lt;/div&gt;" style="rounded=0;whiteSpace=wrap;html=1;fontSize=7;" parent="1" vertex="1">
          <mxGeometry x="795" y="669.75" width="20" height="23" as="geometry" />
        </mxCell>
        <mxCell id="CX1a2zUJxjq3-y0xlzXL-117" value="" style="endArrow=none;html=1;rounded=0;" parent="1" edge="1">
          <mxGeometry width="50" height="50" relative="1" as="geometry">
            <mxPoint x="775" y="784.9200000000001" as="sourcePoint" />
            <mxPoint x="835" y="784.9200000000001" as="targetPoint" />
            <Array as="points">
              <mxPoint x="815" y="784.76" />
            </Array>
          </mxGeometry>
        </mxCell>
        <mxCell id="CX1a2zUJxjq3-y0xlzXL-116" value="" style="shape=trapezoid;perimeter=trapezoidPerimeter;whiteSpace=wrap;html=1;fixedSize=1;rotation=90;size=20;rounded=0;container=0;" parent="1" vertex="1">
          <mxGeometry x="752.5" y="772.5" width="45" height="20" as="geometry" />
        </mxCell>
        <mxCell id="CX1a2zUJxjq3-y0xlzXL-118" value="" style="endArrow=classic;html=1;rounded=0;" parent="1" edge="1">
          <mxGeometry width="50" height="50" relative="1" as="geometry">
            <mxPoint x="774.66" y="815" as="sourcePoint" />
            <mxPoint x="774.9699999999999" y="795" as="targetPoint" />
          </mxGeometry>
        </mxCell>
        <mxCell id="CX1a2zUJxjq3-y0xlzXL-119" value="AOSel" style="text;html=1;align=center;verticalAlign=middle;resizable=0;points=[];autosize=1;strokeColor=none;fillColor=none;fontSize=10;" parent="1" vertex="1">
          <mxGeometry x="750" y="805" width="50" height="30" as="geometry" />
        </mxCell>
        <mxCell id="4VM6qZ6gIVkmnnb2UpD0-2" value="" style="endArrow=none;html=1;rounded=0;" parent="1" edge="1">
          <mxGeometry width="50" height="50" relative="1" as="geometry">
            <mxPoint x="715" y="584" as="sourcePoint" />
            <mxPoint x="835" y="584" as="targetPoint" />
          </mxGeometry>
        </mxCell>
        <mxCell id="4VM6qZ6gIVkmnnb2UpD0-3" value="Instr_M" style="edgeLabel;html=1;align=center;verticalAlign=middle;resizable=0;points=[];" parent="4VM6qZ6gIVkmnnb2UpD0-2" vertex="1" connectable="0">
          <mxGeometry x="0.5805" y="-1" relative="1" as="geometry">
            <mxPoint x="-45" as="offset" />
          </mxGeometry>
        </mxCell>
        <mxCell id="4VM6qZ6gIVkmnnb2UpD0-4" value="" style="endArrow=none;html=1;rounded=0;" parent="1" edge="1">
          <mxGeometry width="50" height="50" relative="1" as="geometry">
            <mxPoint x="725" y="585" as="sourcePoint" />
            <mxPoint x="740" y="515" as="targetPoint" />
            <Array as="points">
              <mxPoint x="725" y="515" />
            </Array>
          </mxGeometry>
        </mxCell>
        <mxCell id="4VM6qZ6gIVkmnnb2UpD0-1" value="Controller" style="rounded=1;whiteSpace=wrap;html=1;fillColor=#ffe6cc;strokeColor=#d79b00;" parent="1" vertex="1">
          <mxGeometry x="735" y="465" width="90" height="60" as="geometry" />
        </mxCell>
        <mxCell id="4VM6qZ6gIVkmnnb2UpD0-5" value="" style="endArrow=classic;html=1;rounded=0;" parent="1" edge="1">
          <mxGeometry width="50" height="50" relative="1" as="geometry">
            <mxPoint x="745" y="525" as="sourcePoint" />
            <mxPoint x="745" y="540" as="targetPoint" />
          </mxGeometry>
        </mxCell>
        <mxCell id="4VM6qZ6gIVkmnnb2UpD0-6" value="" style="endArrow=classic;html=1;rounded=0;" parent="1" edge="1">
          <mxGeometry width="50" height="50" relative="1" as="geometry">
            <mxPoint x="774.66" y="525" as="sourcePoint" />
            <mxPoint x="774.66" y="540" as="targetPoint" />
          </mxGeometry>
        </mxCell>
        <mxCell id="4VM6qZ6gIVkmnnb2UpD0-7" value="AOSel" style="text;html=1;align=center;verticalAlign=middle;resizable=0;points=[];autosize=1;strokeColor=none;fillColor=none;fontSize=9;" parent="1" vertex="1">
          <mxGeometry x="715" y="539.16" width="50" height="20" as="geometry" />
        </mxCell>
        <mxCell id="4VM6qZ6gIVkmnnb2UpD0-9" value="byteen" style="text;html=1;align=center;verticalAlign=middle;resizable=0;points=[];autosize=1;strokeColor=none;fillColor=none;" parent="1" vertex="1">
          <mxGeometry x="745" y="534.16" width="60" height="30" as="geometry" />
        </mxCell>
        <mxCell id="4VM6qZ6gIVkmnnb2UpD0-17" value="" style="endArrow=classic;html=1;rounded=0;" parent="1" edge="1">
          <mxGeometry width="50" height="50" relative="1" as="geometry">
            <mxPoint x="804.17" y="712.75" as="sourcePoint" />
            <mxPoint x="804.17" y="692.75" as="targetPoint" />
          </mxGeometry>
        </mxCell>
        <mxCell id="4VM6qZ6gIVkmnnb2UpD0-18" value="ExtOp" style="text;html=1;align=center;verticalAlign=middle;resizable=0;points=[];autosize=1;strokeColor=none;fillColor=none;" parent="1" vertex="1">
          <mxGeometry x="775" y="700" width="60" height="30" as="geometry" />
        </mxCell>
        <mxCell id="4VM6qZ6gIVkmnnb2UpD0-20" value="" style="endArrow=none;html=1;rounded=0;" parent="1" edge="1">
          <mxGeometry width="50" height="50" relative="1" as="geometry">
            <mxPoint x="845" y="681.21" as="sourcePoint" />
            <mxPoint x="905" y="775" as="targetPoint" />
            <Array as="points">
              <mxPoint x="875" y="681" />
              <mxPoint x="875" y="775" />
            </Array>
          </mxGeometry>
        </mxCell>
        <mxCell id="4VM6qZ6gIVkmnnb2UpD0-22" value="" style="endArrow=none;html=1;rounded=0;" parent="1" edge="1">
          <mxGeometry width="50" height="50" relative="1" as="geometry">
            <mxPoint x="845" y="845.16" as="sourcePoint" />
            <mxPoint x="905" y="795" as="targetPoint" />
            <Array as="points">
              <mxPoint x="875" y="845" />
              <mxPoint x="875" y="795" />
            </Array>
          </mxGeometry>
        </mxCell>
        <mxCell id="4VM6qZ6gIVkmnnb2UpD0-25" value="" style="endArrow=none;html=1;rounded=0;" parent="1" source="4VM6qZ6gIVkmnnb2UpD0-23" edge="1">
          <mxGeometry width="50" height="50" relative="1" as="geometry">
            <mxPoint x="845" y="784.68" as="sourcePoint" />
            <mxPoint x="905" y="784.68" as="targetPoint" />
            <Array as="points">
              <mxPoint x="885" y="784.52" />
            </Array>
          </mxGeometry>
        </mxCell>
        <mxCell id="4VM6qZ6gIVkmnnb2UpD0-28" value="" style="endArrow=none;html=1;rounded=0;" parent="1" edge="1">
          <mxGeometry width="50" height="50" relative="1" as="geometry">
            <mxPoint x="845" y="584.1700000000001" as="sourcePoint" />
            <mxPoint x="865" y="515" as="targetPoint" />
            <Array as="points">
              <mxPoint x="855" y="584" />
              <mxPoint x="855" y="515" />
            </Array>
          </mxGeometry>
        </mxCell>
        <mxCell id="4VM6qZ6gIVkmnnb2UpD0-30" value="Instr_W" style="edgeLabel;html=1;align=center;verticalAlign=middle;resizable=0;points=[];" parent="4VM6qZ6gIVkmnnb2UpD0-28" vertex="1" connectable="0">
          <mxGeometry x="-0.1024" y="-1" relative="1" as="geometry">
            <mxPoint y="-15" as="offset" />
          </mxGeometry>
        </mxCell>
        <mxCell id="4VM6qZ6gIVkmnnb2UpD0-31" value="" style="endArrow=classic;html=1;rounded=0;" parent="1" edge="1">
          <mxGeometry width="50" height="50" relative="1" as="geometry">
            <mxPoint x="900" y="515" as="sourcePoint" />
            <mxPoint x="900" y="765" as="targetPoint" />
          </mxGeometry>
        </mxCell>
        <mxCell id="4VM6qZ6gIVkmnnb2UpD0-34" value="WDSel" style="edgeLabel;html=1;align=center;verticalAlign=middle;resizable=0;points=[];" parent="4VM6qZ6gIVkmnnb2UpD0-31" vertex="1" connectable="0">
          <mxGeometry x="-0.0086" y="-2" relative="1" as="geometry">
            <mxPoint as="offset" />
          </mxGeometry>
        </mxCell>
        <mxCell id="4VM6qZ6gIVkmnnb2UpD0-33" value="" style="endArrow=none;html=1;rounded=0;" parent="1" target="4VM6qZ6gIVkmnnb2UpD0-23" edge="1">
          <mxGeometry width="50" height="50" relative="1" as="geometry">
            <mxPoint x="845" y="784.68" as="sourcePoint" />
            <mxPoint x="905" y="784.68" as="targetPoint" />
            <Array as="points" />
          </mxGeometry>
        </mxCell>
        <mxCell id="4VM6qZ6gIVkmnnb2UpD0-23" value="" style="shape=trapezoid;perimeter=trapezoidPerimeter;whiteSpace=wrap;html=1;fixedSize=1;rotation=90;size=20;rounded=0;container=0;" parent="1" vertex="1">
          <mxGeometry x="875" y="775" width="50" height="20" as="geometry" />
        </mxCell>
        <mxCell id="4VM6qZ6gIVkmnnb2UpD0-35" value="" style="endArrow=classic;html=1;rounded=0;entryX=0.5;entryY=0;entryDx=0;entryDy=0;" parent="1" target="vWQWYnxlX7WX7J1gLuqb-1" edge="1">
          <mxGeometry width="50" height="50" relative="1" as="geometry">
            <mxPoint x="935" y="515" as="sourcePoint" />
            <mxPoint x="405" y="595" as="targetPoint" />
            <Array as="points">
              <mxPoint x="935" y="565" />
              <mxPoint x="405" y="565" />
            </Array>
          </mxGeometry>
        </mxCell>
        <mxCell id="4VM6qZ6gIVkmnnb2UpD0-37" value="RegWrite" style="edgeLabel;html=1;align=center;verticalAlign=middle;resizable=0;points=[];" parent="4VM6qZ6gIVkmnnb2UpD0-35" vertex="1" connectable="0">
          <mxGeometry x="-0.909" y="-1" relative="1" as="geometry">
            <mxPoint as="offset" />
          </mxGeometry>
        </mxCell>
        <mxCell id="CX1a2zUJxjq3-y0xlzXL-84" value="Controller" style="rounded=1;whiteSpace=wrap;html=1;fillColor=#ffe6cc;strokeColor=#d79b00;" parent="1" vertex="1">
          <mxGeometry x="570" y="465" width="120" height="60" as="geometry" />
        </mxCell>
        <mxCell id="4VM6qZ6gIVkmnnb2UpD0-27" value="Controller" style="rounded=1;whiteSpace=wrap;html=1;fillColor=#ffe6cc;strokeColor=#d79b00;" parent="1" vertex="1">
          <mxGeometry x="865" y="465" width="90" height="60" as="geometry" />
        </mxCell>
        <mxCell id="4VM6qZ6gIVkmnnb2UpD0-41" value="" style="endArrow=classic;html=1;rounded=0;" parent="1" edge="1">
          <mxGeometry width="50" height="50" relative="1" as="geometry">
            <mxPoint x="205" y="985" as="sourcePoint" />
            <mxPoint x="205" y="685" as="targetPoint" />
          </mxGeometry>
        </mxCell>
        <mxCell id="4VM6qZ6gIVkmnnb2UpD0-42" value="StallPC" style="edgeLabel;html=1;align=center;verticalAlign=middle;resizable=0;points=[];" parent="4VM6qZ6gIVkmnnb2UpD0-41" vertex="1" connectable="0">
          <mxGeometry x="-0.8233" y="4" relative="1" as="geometry">
            <mxPoint x="4" y="-3" as="offset" />
          </mxGeometry>
        </mxCell>
        <mxCell id="4VM6qZ6gIVkmnnb2UpD0-43" value="" style="endArrow=classic;html=1;rounded=0;" parent="1" edge="1">
          <mxGeometry width="50" height="50" relative="1" as="geometry">
            <mxPoint x="310" y="985" as="sourcePoint" />
            <mxPoint x="309.58" y="885" as="targetPoint" />
          </mxGeometry>
        </mxCell>
        <mxCell id="4VM6qZ6gIVkmnnb2UpD0-44" value="StallD" style="edgeLabel;html=1;align=center;verticalAlign=middle;resizable=0;points=[];" parent="4VM6qZ6gIVkmnnb2UpD0-43" vertex="1" connectable="0">
          <mxGeometry x="-0.4998" y="-2" relative="1" as="geometry">
            <mxPoint x="-2" y="-5" as="offset" />
          </mxGeometry>
        </mxCell>
        <mxCell id="4VM6qZ6gIVkmnnb2UpD0-45" value="" style="endArrow=classic;html=1;rounded=0;" parent="1" edge="1">
          <mxGeometry width="50" height="50" relative="1" as="geometry">
            <mxPoint x="540" y="985" as="sourcePoint" />
            <mxPoint x="539.5799999999999" y="885" as="targetPoint" />
          </mxGeometry>
        </mxCell>
        <mxCell id="4VM6qZ6gIVkmnnb2UpD0-46" value="ClrE" style="edgeLabel;html=1;align=center;verticalAlign=middle;resizable=0;points=[];" parent="4VM6qZ6gIVkmnnb2UpD0-45" vertex="1" connectable="0">
          <mxGeometry x="-0.4998" y="-2" relative="1" as="geometry">
            <mxPoint x="-2" y="-5" as="offset" />
          </mxGeometry>
        </mxCell>
        <mxCell id="4VM6qZ6gIVkmnnb2UpD0-40" value="&lt;font&gt;HazardCtrl&lt;/font&gt;" style="rounded=1;whiteSpace=wrap;html=1;fillColor=#ffe6cc;strokeColor=#d79b00;" parent="1" vertex="1">
          <mxGeometry x="185" y="975" width="780" height="60" as="geometry" />
        </mxCell>
        <mxCell id="4VM6qZ6gIVkmnnb2UpD0-47" value="" style="endArrow=classic;html=1;rounded=0;" parent="1" edge="1">
          <mxGeometry width="50" height="50" relative="1" as="geometry">
            <mxPoint x="165" y="990" as="sourcePoint" />
            <mxPoint x="185" y="990" as="targetPoint" />
          </mxGeometry>
        </mxCell>
        <mxCell id="4VM6qZ6gIVkmnnb2UpD0-48" value="" style="endArrow=classic;html=1;rounded=0;" parent="1" edge="1">
          <mxGeometry width="50" height="50" relative="1" as="geometry">
            <mxPoint x="165" y="1004.5799999999999" as="sourcePoint" />
            <mxPoint x="185" y="1004.5799999999999" as="targetPoint" />
          </mxGeometry>
        </mxCell>
        <mxCell id="4VM6qZ6gIVkmnnb2UpD0-49" value="" style="endArrow=classic;html=1;rounded=0;" parent="1" edge="1">
          <mxGeometry width="50" height="50" relative="1" as="geometry">
            <mxPoint x="165" y="1015" as="sourcePoint" />
            <mxPoint x="185" y="1015" as="targetPoint" />
          </mxGeometry>
        </mxCell>
        <mxCell id="4VM6qZ6gIVkmnnb2UpD0-50" value="Instr" style="text;html=1;align=center;verticalAlign=middle;resizable=0;points=[];autosize=1;strokeColor=none;fillColor=none;" parent="1" vertex="1">
          <mxGeometry x="120" y="975" width="50" height="30" as="geometry" />
        </mxCell>
        <mxCell id="4VM6qZ6gIVkmnnb2UpD0-51" value="RegDst" style="text;html=1;align=center;verticalAlign=middle;resizable=0;points=[];autosize=1;strokeColor=none;fillColor=none;fontSize=11;" parent="1" vertex="1">
          <mxGeometry x="110" y="1005" width="60" height="30" as="geometry" />
        </mxCell>
        <mxCell id="4VM6qZ6gIVkmnnb2UpD0-52" value="RegWrite" style="text;html=1;align=center;verticalAlign=middle;resizable=0;points=[];autosize=1;strokeColor=none;fillColor=none;fontSize=11;" parent="1" vertex="1">
          <mxGeometry x="100" y="990" width="70" height="30" as="geometry" />
        </mxCell>
        <mxCell id="4VM6qZ6gIVkmnnb2UpD0-54" value="" style="endArrow=classic;html=1;rounded=0;" parent="1" edge="1">
          <mxGeometry width="50" height="50" relative="1" as="geometry">
            <mxPoint x="489.58" y="975" as="sourcePoint" />
            <mxPoint x="490" y="905" as="targetPoint" />
          </mxGeometry>
        </mxCell>
        <mxCell id="4VM6qZ6gIVkmnnb2UpD0-55" value="RDSel" style="text;html=1;align=center;verticalAlign=middle;resizable=0;points=[];autosize=1;strokeColor=none;fillColor=none;" parent="1" vertex="1">
          <mxGeometry x="460" y="885" width="60" height="30" as="geometry" />
        </mxCell>
        <mxCell id="4VM6qZ6gIVkmnnb2UpD0-58" value="Pipeline" style="text;html=1;align=center;verticalAlign=middle;resizable=0;points=[];autosize=1;strokeColor=none;fillColor=none;fontSize=20;" parent="1" vertex="1">
          <mxGeometry x="100" y="440" width="90" height="40" as="geometry" />
        </mxCell>
        <mxCell id="4VM6qZ6gIVkmnnb2UpD0-60" value="CP0" style="rounded=0;whiteSpace=wrap;html=1;fontSize=20;fillColor=#d5e8d4;strokeColor=#82b366;" parent="1" vertex="1">
          <mxGeometry x="1025" y="840" width="80" height="80" as="geometry" />
        </mxCell>
        <mxCell id="4VM6qZ6gIVkmnnb2UpD0-66" value="CPU" style="text;html=1;align=center;verticalAlign=middle;resizable=0;points=[];autosize=1;strokeColor=none;fillColor=none;fontSize=20;" parent="1" vertex="1">
          <mxGeometry x="65" y="400" width="70" height="40" as="geometry" />
        </mxCell>
        <mxCell id="4VM6qZ6gIVkmnnb2UpD0-69" value="" style="endArrow=classic;html=1;rounded=0;fillColor=#f8cecc;strokeColor=#b85450;" parent="1" edge="1">
          <mxGeometry width="50" height="50" relative="1" as="geometry">
            <mxPoint x="755" y="680" as="sourcePoint" />
            <mxPoint x="1225" y="620" as="targetPoint" />
            <Array as="points">
              <mxPoint x="755" y="620" />
            </Array>
          </mxGeometry>
        </mxCell>
        <mxCell id="4VM6qZ6gIVkmnnb2UpD0-70" value="" style="endArrow=classic;html=1;rounded=0;fillColor=#f8cecc;strokeColor=#b85450;" parent="1" edge="1">
          <mxGeometry width="50" height="50" relative="1" as="geometry">
            <mxPoint x="1225" y="660" as="sourcePoint" />
            <mxPoint x="795" y="680.8299999999999" as="targetPoint" />
            <Array as="points">
              <mxPoint x="775" y="660" />
              <mxPoint x="775" y="681" />
            </Array>
          </mxGeometry>
        </mxCell>
        <mxCell id="4VM6qZ6gIVkmnnb2UpD0-67" value="Bridge" style="rounded=0;whiteSpace=wrap;html=1;fontSize=20;fillColor=#f8cecc;strokeColor=#b85450;" parent="1" vertex="1">
          <mxGeometry x="1225" y="605" width="360" height="75" as="geometry" />
        </mxCell>
        <mxCell id="4VM6qZ6gIVkmnnb2UpD0-71" value="" style="shape=flexArrow;endArrow=classic;startArrow=classic;html=1;rounded=0;fillColor=#d5e8d4;strokeColor=#82b366;entryX=0;entryY=0.5;entryDx=0;entryDy=0;" parent="1" target="4VM6qZ6gIVkmnnb2UpD0-60" edge="1">
          <mxGeometry width="100" height="100" relative="1" as="geometry">
            <mxPoint x="935" y="880" as="sourcePoint" />
            <mxPoint x="1015" y="881" as="targetPoint" />
          </mxGeometry>
        </mxCell>
        <mxCell id="4VM6qZ6gIVkmnnb2UpD0-72" value="Exception" style="text;html=1;align=center;verticalAlign=middle;resizable=0;points=[];autosize=1;strokeColor=none;fillColor=none;fontSize=15;" parent="1" vertex="1">
          <mxGeometry x="935" y="830" width="90" height="30" as="geometry" />
        </mxCell>
        <mxCell id="4VM6qZ6gIVkmnnb2UpD0-73" value="Timer0" style="rounded=0;whiteSpace=wrap;html=1;fillColor=#fff2cc;strokeColor=#d6b656;fontSize=16;" parent="1" vertex="1">
          <mxGeometry x="1305" y="763" width="80" height="80" as="geometry" />
        </mxCell>
        <mxCell id="4VM6qZ6gIVkmnnb2UpD0-74" value="Timer1" style="rounded=0;whiteSpace=wrap;html=1;fillColor=#fff2cc;strokeColor=#d6b656;fontSize=16;" parent="1" vertex="1">
          <mxGeometry x="1465" y="760" width="80" height="80" as="geometry" />
        </mxCell>
        <mxCell id="4VM6qZ6gIVkmnnb2UpD0-75" value="" style="endArrow=classic;startArrow=classic;html=1;rounded=0;fillColor=#fff2cc;strokeColor=#d6b656;" parent="1" edge="1">
          <mxGeometry width="50" height="50" relative="1" as="geometry">
            <mxPoint x="1344.5" y="760" as="sourcePoint" />
            <mxPoint x="1344.5" y="680" as="targetPoint" />
          </mxGeometry>
        </mxCell>
        <mxCell id="4VM6qZ6gIVkmnnb2UpD0-76" value="" style="endArrow=classic;startArrow=classic;html=1;rounded=0;fillColor=#fff2cc;strokeColor=#d6b656;" parent="1" edge="1">
          <mxGeometry width="50" height="50" relative="1" as="geometry">
            <mxPoint x="1504.5" y="760" as="sourcePoint" />
            <mxPoint x="1504.5" y="680" as="targetPoint" />
          </mxGeometry>
        </mxCell>
        <mxCell id="4VM6qZ6gIVkmnnb2UpD0-77" value="" style="endArrow=classic;startArrow=classic;html=1;rounded=0;fillColor=#fff2cc;strokeColor=#d6b656;exitX=1.001;exitY=0.728;exitDx=0;exitDy=0;exitPerimeter=0;" parent="1" source="4VM6qZ6gIVkmnnb2UpD0-65" edge="1">
          <mxGeometry width="50" height="50" relative="1" as="geometry">
            <mxPoint x="1205" y="880" as="sourcePoint" />
            <mxPoint x="1344.5" y="843" as="targetPoint" />
            <Array as="points">
              <mxPoint x="1345" y="880" />
            </Array>
          </mxGeometry>
        </mxCell>
        <mxCell id="4VM6qZ6gIVkmnnb2UpD0-78" value="" style="endArrow=classic;startArrow=classic;html=1;rounded=0;fillColor=#fff2cc;strokeColor=#d6b656;entryX=0.5;entryY=1;entryDx=0;entryDy=0;exitX=1.001;exitY=0.774;exitDx=0;exitDy=0;exitPerimeter=0;" parent="1" source="4VM6qZ6gIVkmnnb2UpD0-65" target="4VM6qZ6gIVkmnnb2UpD0-74" edge="1">
          <mxGeometry width="50" height="50" relative="1" as="geometry">
            <mxPoint x="1205" y="910" as="sourcePoint" />
            <mxPoint x="1344.5" y="873" as="targetPoint" />
            <Array as="points">
              <mxPoint x="1505" y="910" />
            </Array>
          </mxGeometry>
        </mxCell>
        <mxCell id="4VM6qZ6gIVkmnnb2UpD0-79" value="" style="shape=flexArrow;endArrow=classic;html=1;rounded=0;fillColor=#d5e8d4;strokeColor=#82b366;entryX=1;entryY=0.5;entryDx=0;entryDy=0;" parent="1" target="4VM6qZ6gIVkmnnb2UpD0-60" edge="1">
          <mxGeometry width="50" height="50" relative="1" as="geometry">
            <mxPoint x="1175" y="880" as="sourcePoint" />
            <mxPoint x="1135" y="880" as="targetPoint" />
          </mxGeometry>
        </mxCell>
        <mxCell id="4VM6qZ6gIVkmnnb2UpD0-81" value="TimerInterupt" style="text;html=1;align=center;verticalAlign=middle;resizable=0;points=[];autosize=1;strokeColor=none;fillColor=none;strokeWidth=7;fontSize=17;" parent="1" vertex="1">
          <mxGeometry x="1365" y="875" width="120" height="30" as="geometry" />
        </mxCell>
        <mxCell id="4VM6qZ6gIVkmnnb2UpD0-82" value="DM" style="rounded=0;whiteSpace=wrap;html=1;fontSize=20;fillColor=#f8cecc;strokeColor=#b85450;" parent="1" vertex="1">
          <mxGeometry x="1425" y="120" width="120" height="120" as="geometry" />
        </mxCell>
        <mxCell id="4VM6qZ6gIVkmnnb2UpD0-83" value="" style="shape=flexArrow;endArrow=classic;startArrow=classic;html=1;rounded=0;fillColor=#f8cecc;strokeColor=#b85450;" parent="1" edge="1">
          <mxGeometry width="100" height="100" relative="1" as="geometry">
            <mxPoint x="1484.41" y="605" as="sourcePoint" />
            <mxPoint x="1484.41" y="240" as="targetPoint" />
          </mxGeometry>
        </mxCell>
        <mxCell id="4VM6qZ6gIVkmnnb2UpD0-85" value="" style="endArrow=classic;html=1;rounded=0;fillColor=#e1d5e7;strokeColor=#9673a6;" parent="1" edge="1">
          <mxGeometry width="50" height="50" relative="1" as="geometry">
            <mxPoint x="1205" y="200" as="sourcePoint" />
            <mxPoint x="1175" y="855" as="targetPoint" />
            <Array as="points">
              <mxPoint x="1205" y="330" />
              <mxPoint x="1205" y="855" />
            </Array>
          </mxGeometry>
        </mxCell>
        <mxCell id="4VM6qZ6gIVkmnnb2UpD0-86" value="" style="endArrow=classic;html=1;rounded=0;fillColor=#e1d5e7;strokeColor=#9673a6;" parent="1" edge="1">
          <mxGeometry width="50" height="50" relative="1" as="geometry">
            <mxPoint x="1344.5" y="605" as="sourcePoint" />
            <mxPoint x="1345" y="240" as="targetPoint" />
          </mxGeometry>
        </mxCell>
        <mxCell id="4VM6qZ6gIVkmnnb2UpD0-87" value="Interruption" style="text;html=1;align=center;verticalAlign=middle;resizable=0;points=[];autosize=1;strokeColor=none;fillColor=none;fontSize=15;" parent="1" vertex="1">
          <mxGeometry x="1095" y="830" width="100" height="30" as="geometry" />
        </mxCell>
        <mxCell id="4VM6qZ6gIVkmnnb2UpD0-89" value="IM" style="rounded=0;whiteSpace=wrap;html=1;fillColor=#dae8fc;strokeColor=#6c8ebf;fontSize=20;" parent="1" vertex="1">
          <mxGeometry x="195" y="160" width="120" height="120" as="geometry" />
        </mxCell>
        <mxCell id="4VM6qZ6gIVkmnnb2UpD0-92" value="" style="rounded=0;whiteSpace=wrap;html=1;fillColor=none;" parent="1" vertex="1">
          <mxGeometry x="40" y="320" width="1575" height="760" as="geometry" />
        </mxCell>
        <mxCell id="4VM6qZ6gIVkmnnb2UpD0-84" value="InterruptGenerator" style="rounded=0;whiteSpace=wrap;html=1;fillColor=#e1d5e7;strokeColor=#9673a6;fontSize=20;" parent="1" vertex="1">
          <mxGeometry x="1175" y="140" width="200" height="100" as="geometry" />
        </mxCell>
        <mxCell id="4VM6qZ6gIVkmnnb2UpD0-93" value="MIPS" style="text;html=1;align=center;verticalAlign=middle;resizable=0;points=[];autosize=1;strokeColor=none;fillColor=none;fontSize=25;" parent="1" vertex="1">
          <mxGeometry x="55" y="320" width="80" height="40" as="geometry" />
        </mxCell>
        <mxCell id="4VM6qZ6gIVkmnnb2UpD0-94" value="" style="rounded=0;whiteSpace=wrap;html=1;fillColor=none;" parent="1" vertex="1">
          <mxGeometry x="20" y="80" width="1620" height="1020" as="geometry" />
        </mxCell>
        <mxCell id="4VM6qZ6gIVkmnnb2UpD0-95" value="TestBench" style="text;html=1;align=center;verticalAlign=middle;resizable=0;points=[];autosize=1;strokeColor=none;fillColor=none;fontSize=30;" parent="1" vertex="1">
          <mxGeometry x="25" y="80" width="160" height="50" as="geometry" />
        </mxCell>
        <mxCell id="QCUmHrYAcBgnJ4APclau-2" value="" style="endArrow=classic;html=1;rounded=0;entryX=0.457;entryY=0.529;entryDx=0;entryDy=0;entryPerimeter=0;fillColor=#f8cecc;strokeColor=#b85450;" edge="1" parent="1" target="4VM6qZ6gIVkmnnb2UpD0-94">
          <mxGeometry width="50" height="50" relative="1" as="geometry">
            <mxPoint x="735" y="745" as="sourcePoint" />
            <mxPoint x="750" y="620" as="targetPoint" />
            <Array as="points">
              <mxPoint x="735" y="735" />
              <mxPoint x="735" y="620" />
            </Array>
          </mxGeometry>
        </mxCell>
      </root>
    </mxGraphModel>
  </diagram>
</mxfile>
